<svg width="400" height="400" viewBox="0 0 400 400" xmlns="http://www.w3.org/2000/svg" stroke="#8B1E1E" fill="none" stroke-width="2" stroke-linecap="round" stroke-linejoin="round">
    <g transform="translate(50, 50)">
        <circle cx="15" cy="5" r="4" fill="#8B1E1E"/>
        <polygon points="15,10 5,25 25,25" fill="#8B1E1E"/>
        <polygon points="15,40 5,25 25,25" fill="#8B1E1E"/>
        <path d="M5 15 L-5 25 L5 35" />
        <path d="M25 15 L35 25 L25 35" />
        <path d="M10 40 L5 55" />
        <path d="M20 40 L25 55" />
    </g>
    <g transform="translate(180, 40)">
        <circle cx="20" cy="20" r="8"/>
        <path d="M20 5 L20 0 M20 35 L20 40 M5 20 L0 20 M35 20 L40 20 M9 9 L5 5 M31 31 L35 35 M9 31 L5 35 M31 9 L35 5"/>
    </g>
    <g transform="translate(280, 80)">
        <line x1="10" y1="20" x2="30" y2="20" stroke-width="4"/>
        <path d="M10 20 L5 35" />
        <path d="M15 20 L15 35" />
        <path d="M25 20 L25 35" />
        <path d="M30 20 L35 35" />
        <path d="M30 20 L40 10 L45 15" />
        <path d="M40 10 L35 0 M40 10 L45 0" />
    </g>
    <g transform="translate(80, 200)">
        <circle cx="15" cy="5" r="4" fill="#8B1E1E"/>
        <polygon points="15,10 5,25 25,25" fill="#8B1E1E"/>
        <polygon points="15,40 5,25 25,25" fill="#8B1E1E"/>
        <path d="M5 15 L0 5" />
        <path d="M25 15 L30 5" />
        <path d="M10 40 L0 45" />
        <path d="M20 40 L30 45" />
    </g>
    <g transform="translate(250, 250)">
        <polygon points="20,0 40,20 20,40 0,20"/>
        <circle cx="20" cy="20" r="5"/>
        <line x1="0" y1="0" x2="40" y2="40"/>
        <line x1="0" y1="40" x2="40" y2="0"/>
    </g>
    <g transform="translate(320, 200)">
        <line x1="20" y1="50" x2="20" y2="10"/>
        <path d="M20 40 L10 30 M20 30 L10 20 M20 20 L10 10 M20 40 L30 30 M20 30 L30 20 M20 20 L30 10"/>
    </g>
    <g transform="translate(150, 150)">
        <path d="M10 20 Q 20 10 30 20 Q 20 30 10 20"/>
        <line x1="30" y1="20" x2="40" y2="25"/>
        <circle cx="15" cy="18" r="1"/>
        <path d="M20 15 Q 15 5 25 5"/>
        <path d="M20 25 L15 35 M25 25 L25 35"/>
    </g>
</svg>
